<svg id="Layer_1" data-name="Layer 1" xmlns="http://www.w3.org/2000/svg" xmlns:xlink="http://www.w3.org/1999/xlink" viewBox="0 0 1000 1000"><defs><style>.cls-1,.cls-5{fill:none;}.cls-1{clip-rule:evenodd;}.cls-2{clip-path:url(#clip-path);}.cls-3{fill:#000001;}.cls-3,.cls-4,.cls-6{fill-rule:evenodd;}.cls-4{fill:#fff;}.cls-5{stroke:#000001;stroke-linecap:round;stroke-linejoin:round;stroke-width:0.33px;}.cls-6,.cls-7,.cls-8{fill:#ed2024;}.cls-8{stroke:#ed2024;stroke-miterlimit:22.93;stroke-width:0.22px;}</style><clipPath id="clip-path"><path class="cls-1" d="M574.65,149.44c125.72,0,227.64,94.4,227.64,210.85S700.37,571.14,574.65,571.14,347,476.74,347,360.29,448.92,149.44,574.65,149.44Z"/></clipPath></defs><g class="cls-2"><path class="cls-3" d="M451.76,523.24l10.91,3.19,14.15,1.24c2.12.34,3.68,1.49,4,4.43,3.17-.1,5.82,1.58,8.23,4.07,3.76,2.43,9.43,3.48,15.49,4.25,10.35,7.3,20.95,7.93,31.56,8.33l2.87-3q-1.63-5.58-3.26-11.16c-3.94-.07-7.85-.26-10.51-3.9-5.51,2-9-4.16-14.16-3.19l-4.21-5.14c-2.1-.08-3.82,0-2.86,1.6l-8.23-4.43c.19-2.42.39-4.84.58-7.26a5.4,5.4,0,0,0,1.53-5.85c.63-1.3,1.27-2.6,1.91-3.9l-3.63-9.92c-.25-1.33.32-2.38,2.1-3,4.16-5.74-.87-8.81-5.36-12-3.35-1.37-3.67-3.43-.95-6.21,7.3-7.06,11.35-.59,14.72,8.69-3.12,6.32.64,9.71,6.89,12,.54,3.19,2.23,5.78,7.08,6.73q5.31-3.19,1.53-8.32c7.45-1.29,9.77,0,9.75,2.48l-2.29,1.59c16.3,3.72,28.3,3.18,36.72-.88-3.47-1.49-7.41-2.7-9-5.32.26-1.95-2-2.26-4-2.66l-2.49-4.78c-10-3.33-17.37-8.14-22.56-14.17l-11.48,4.43A131.61,131.61,0,0,1,509.52,452c-1.83-1.87-5.32-3.33-9.56-4.61a9,9,0,0,0-6.89-2.83l-2.1-3-2.68-2.12c.39-1.67,1.29-2.92,3.83-2.83-4.46-4.77-5.46-10.6-5.74-16.66a17.56,17.56,0,0,0-2.1-8c-3.82,1.93-7.79,1.77-11.86.18-4.07-8.08-7.71-16.26-9.75-24.8,3,2.87,6.72,1.72,10.51,0L471.85,389c2.45,1.45,3.26,4.42,3.06,8.33,3.59-.93,5.19.93,6.5,3.19,1.36,5.24,4.65,5.09,8.8,2.48,5.57-6.33,8.75-14.12,6.69-25.16q-2.38-3.63,2.49-4.78c-.32-18,6.83-32.59,17-45.71L468,340.25l-1,9.92c-2.38.12-3,2.91-2.87,6.9-3.23,1.92-5,1.08-6.31-.53a6.2,6.2,0,0,1-3.63,4.43c2.21,3.53,3.57,7.29,1.72,11.87,4.12,3.16,3.49,6.58,1.15,10.1,2,.69,3.33,1.68,3.44,3.19a123.31,123.31,0,0,0,9,25.86c.05,2.13.11,4.27.16,6.4l10.59,11.4-2.58,2.91c1.82,7.9-1.59,14.14-7.91,19.44-14.64,8.18-28.46,17.7-40.81,29.65L417.53,485l4.78,8,8,1.42-1.53,15.94c4,1.71,7.25,5.33,10.14,9.74,4.85,3.8,11.35,7.12,20.27,9.74l-7.46-6.55Z"/><path class="cls-3" d="M536.39,360.68l-2.89,1.45c-6.65-.09-11.87.51-14,2.64,4.46,0,8.8.18,12.25,2.15.55,1.28.16,2.79-1.19,4.53,1.27.28,2.29,1,2.42,3.25,1.63-.93,3.17-1.28,4.42.49,6.33-2.91,11.8-2,16.61,1.76q5.54-5.06,9.54.09l4.7,4.35,1.85-3.74c4.7-.61,5.53-3-2.18-9.23-.14-1.31-.87-2.44-2.9-3.17a5.5,5.5,0,0,0-2.94-4.31q16.88.38,7-13.76c.22-2.84-1.39-2.62-3.84-1-1.47.1-1.92-.74-2-1.93l-7.46.13a9.43,9.43,0,0,0-7.35-.13,28.07,28.07,0,0,0-10.21-.44l-5.13-1.63c-7.59,1.53-12.94,6-15.85,13.59a23.38,23.38,0,0,0,13.62-2.42c3.32,2.91,7.86,2.42,12.58,1.45,3.17.75,5.06,1.93,6.08,3.38l-12.34.62-.86,1.89Z"/><path class="cls-4" d="M555.09,365.82a7.63,7.63,0,0,1-.28,3.52,6,6,0,0,0,3.18-1.8,3.11,3.11,0,0,0-2.9-1.72Z"/><path class="cls-4" d="M542.86,364.21a3.34,3.34,0,0,0-.9,3.57,9,9,0,0,1-4.72-2.66,11.23,11.23,0,0,1,5.62-.91Z"/><path class="cls-3" d="M602.47,357.43q-2.38,15.76-4.78,31.53a11.17,11.17,0,0,1,4.78,4.43c-.12,1.18-.25,2.36-.38,3.54l5.37,1.4c-3.06,4.37-3.33,8.06.48,10.78l1.72-1.32v3.09l-3,.44-4.2,2.12c-4.61.9-8.72,3.44-12.69,6.45l-5,.62c-.46-1.73-1.13-3.21-2.86-3.53-2.27-2.8-4.7-5-7.73-5-.28-2.32-1.58-4-5.15-4.33.32-3.48-1.23-6.11-6.11-7.25-5.71-.2-7.17,2.34-7.44,5.66l8.21,2.3c-1.23,4.28-3,7.51-5.35,9.45-4.13-.86-7.78-.72-10.39,1.59-1.68-2.41-4.66-2.32-8.11-1.33-7.83-.66-12.63-4.34-10.78-14.66-.81-4-2.12-2.27-3.44-.36-1.79-2.27-2.71-1.15-3.24,1.51-2.86,12.09.09,21.95,9.44,29.33,11.6,7,25.21,6.7,39.59,3.62,8.35,5.71,18.08,6.19,29.48.36,13.92,4.75,24.92,5,33.46,1.33,10-4.28,21.79-21.08,8.9-29.34-1.1,7.22-3.57,12.75-9.25,14.31-1.1-3.8-4.06-6.83-9.74-8.75-2.07-3-4.41-5.89-9.82-7.24-.61-3.09-1.21-6.19-1.81-9.28l1.62-19.7a6.51,6.51,0,0,1,5.44,2.91c3.78-2,8.05-2,12.59-1.06a16.31,16.31,0,0,0,8.11-2.56l8.39-.27q4.44-2.91,8.87-5.83v-9.1c-2.38-.65-4-1.53-.57-4.06q.13-3.88-2.19-5.48c-2-1-3.58-2.1-4.2-3.45l-6.39-3.27-8.49.71-1.62,1.59-12.6.09-5.82.53-1.23,1.32c-1.06-.58-2.1-1.18-3.15-1.76-1.73-.36-2.28.57-2.48,1.85-1.55,5.26-4,5.63-6.43,6Z"/><path class="cls-4" d="M620.46,365a5.55,5.55,0,0,0,1.61,3.86,11.84,11.84,0,0,1-5.12-1.05l3.51-2.81Z"/><path class="cls-4" d="M631.57,364.29a10.45,10.45,0,0,1-.57,4.52,13.09,13.09,0,0,0,4.93-2.72,7.7,7.7,0,0,0-4.36-1.8Z"/><path class="cls-3" d="M658.7,327.31v5.49c-4.48,4.49-4.31,7.66-1,9.93.91,2.7.32,5.79-.19,8.85q2,6.38,4,12.76a12.24,12.24,0,0,1-1.53,7.79c4.13,3.58,4.9,12.4,5,22.32,3.8-.16,6.71,1.6,9.37,3.9,2.7-3.87,5.26-7.1,6.69-4.6a100.39,100.39,0,0,1-13,31.17c-3.87-6.11-6.38-.55-8.6,7.44l-3.63,9.21c-3.09,4.46-6.49,8.41-10.72,11-1.12,5-4,9.49-7.26,13.82a43.19,43.19,0,0,0-8.8,10.62c-1.74.27-3.25.38-3.09-.64l2.1-2a4.89,4.89,0,0,0-1.91-4.06l5.63-6.54c.38-1.2-.32-1.75-1.33-2.12v-2.12c-3.93-.4-7.92-.6-11.45-2.21q-2.53,8.22-5.06,16.43a9.89,9.89,0,0,1-7.53.53c-4.25-2.58-8.92-2.93-13.93-1.41q.18,3.68.38,7.33c-5.86-2.51-11.1-6-20.89-2.29-4.93-.16-4.38,5-3.91,10.07-3,3.9.52,7.11,6.39,10.07a12.73,12.73,0,0,0-6.58,4.6L532,496.32c-8.15,14.53-5.87,26.74,5.06,37,10-6.2,20-11.72,29.76-14.85,11.37,9.65,21.2,8.35,29.77-2A97.72,97.72,0,0,0,628,531.93c6.44-7.68,14.14-15.61,9.07-21.12-1.2-5.64-3.4-10.66-8.4-14a157.32,157.32,0,0,1-32.81,4.77c-3.07-1.13-5.07-2.25.38-3.26a67.7,67.7,0,0,0,37.87-7.6c3.35.6,5.73-.42,6.68-3.8C646,478.07,651.65,469.3,661,461.6q1.44-7.77,2.87-15.55c4.49-5.66,8.06-11.52,5.15-18.82a82.1,82.1,0,0,0,14.31-33.58c.86-1.21,1.71-2.42,2.57-3.62,2.9-4.34,3.37-9.66,2.2-15.64,1.12-4.45,1.74-8.9.57-13.35-5.88-8.2-10.26-16.73-8.49-26.59l-21.46-7.14Z"/><path class="cls-3" d="M661.57,467.44c-6.88,5.26-13.77,14-20.65,23.56l.57,12.22c-1.4,3.6-2.49,7.2-1.34,10.81q-2.19,8.51-4.4,17c-5.58,4.38-10.17,3.69-14.72,2.84-1.46-3.2-5.19-3.65-9.95-2.84a71.94,71.94,0,0,0-14.92-8.68c-1.21,10.74-1.08,21.33,4.59,31.36a437,437,0,0,0,58.14-14.17,196.26,196.26,0,0,1,48.58-28q12.63-15.15,25.25-30.29l-6.12-.71c-4.61-2.07-9.35-3.49-14.73-1.78-18.73-.43-34.64-5.68-50.3-11.33Z"/><path class="cls-5" d="M549.75,441.1c6.18,2.9,13.47,1.48,21.18-1.5,9.39,5.87,19.7,5.31,30.62.35,6.34,4.74,13.21,4.95,20.32,3.09"/><path class="cls-3" d="M570.16,444q17.9,17.89,32.73.8a107.52,107.52,0,0,1-32.73-.8Z"/><path class="cls-6" d="M468,340.25c76-16.7,148.19-21.34,213.44-3.55,3.92,0,7-1.43,7.08-7.61-5.14-40.69-7.8-82-9.37-123.66-1.68-6.8-20.12-8.72-44-9.21-66.43-4.53-131.85-4.68-151.29,3.55-2.3,46.82-6.93,93.65-15.87,140.48Z"/><path class="cls-4" d="M490.59,200.65c60.61-5.42,120.82-2.09,180.93,3.37-40.61,2.88-80.26,4.07-118.31,2.4-11.58,11.44-15.91,24.42-14.23,38.7,2.5,1.54,3.48,5.32,3.44,10.63,3.77,1.26,5.52,5.06,5.74,10.8-.74,3.28,1,5.94,3.06,8.51a26.61,26.61,0,0,1-16.64-1.42c-6.14,1.77-12.18,3.35-15.49-1.06,2.22-5.08,4.23-11,7.26-12.58,2.09-1.37,4.84-1.85,4.21-6.73-.38-4,.51-6.26,2.68-6.74,0-12.27,2.6-23.84,9.36-34.25a40.58,40.58,0,0,1,4.61-6.15c-19.33-1-38.23-2.79-56.62-5.48Z"/></g><path class="cls-7" d="M574.65,578.39c-129.52,0-234.89-97.84-234.89-218.1S445.13,142.2,574.65,142.2,809.54,240,809.54,360.29,704.17,578.39,574.65,578.39Zm0-421.7c-121.53,0-220.4,91.33-220.4,203.6S453.12,563.9,574.65,563.9s220.4-91.34,220.4-203.61S696.18,156.69,574.65,156.69Z"/><path class="cls-6" d="M52.48,428.4q2.09,110.45,4.18,220.9L23,681.6c-11.45,18.82-2.53,24.62,15.63,24.51,72.56-1.49,145.11.86,217.67-.63-9.12-45.15-18.24-93.25-27.36-139.14-9.61-48.43-31.66,14-36.37,31.72q-23.46,53.21-48.11,34.53c-23-16.82-32-53.68-24-114.73,25.81.09,37.51,26.3,54.12,43.44-12-51.31-18.8-103.53-18-157.06q-7.71-15.48-19.24-3.34c-3.26,26.2-6.34,52.83-20.45,51.24l1.2-76.86c4.05-45.32,18.56-64.91,45.7-53.46,14.22,10.2,16.94,27,14.43,46.78l-20.44,2.23c2.85,48.73,23.78,57.41,52.91,47.89,37.44-12.7,53.13-47.13,30.07-120.3h-35c-76.23-52.25-124.61-21.56-163,38.87-13.49,21.24-15.15,21.36-1.58,41.86,12.08,18.26,10.93,27.6,11.34,49.25Z"/><path class="cls-6" d="M276,609.57l-1.8,50.56c-18.71,14.49-17.19,40.27,16.2,45,16.4-.74,33.23,1,49.63.24,10.5.37,19.89-.19,21.6-7.22.4-9.07.35-20.61.75-29.69C359.3,661,352.9,658.15,345,657.35l-2.4-40.56,18.59,2.78c-1,34.13,9.51,52.75,24.39,65.55,30.24,26,83.73,30.8,101.47-8,5.62-12.28-2.25-16.71-12.44-6.9-13.08,12.59-48.82-3.15-45-18.38l33.46,2.44c21.65,1.57,31.51,7.78,29.59-16.73-4.56-57.87-105.21-89.31-123-31.82q-.51-6.09-1-12.19c-1.14-13.81-17-6.62-28.13-15.3-11.93-9.3-20.25-21.92-28.45-34.74,0-5,2.8-6,9-2.22l28.8,21.67q31.69,13.74,24-33.34c-17.48-63-106.54-76.16-109.17-5L263.44,569c-9.38-.67-7.8-.7-7.8,7.92v15.89c0,13.87,6.73,11.91,20.39,16.75Zm163.71.44c6.25,3.1,9.73,8.38,7.77,11.77s-8.63,3.64-14.89.54-9.74-8.38-7.78-11.78,8.64-3.63,14.9-.53Z"/><path class="cls-6" d="M506,639.92v37.94c-19.48,30.42,52.44,29.33,65.7,21.62,3.38-6.64,3.86-12.52.11-17.28l.15-23.76c1-5.38,9.94-6.12,13.14-.55.59,8.94,1.07,16.13,1.67,25.08-6,2.9-5.29,9.16-3.76,13.9,2.74,11,43,7.25,69.24,8,6.57-1.43,9.08-10.32,2.59-20.67-.6-14.37,1.29-38.49.7-52.87-1.37-13.39-14.93-15.48-34-12.44l-37,10.23a26.82,26.82,0,0,1-13.57-3.5c-7-4-6.77-5.06-15.64-5.23-13.69-.27-79.44-8.32-49.29,19.51Z"/><path class="cls-6" d="M824.62,495.14c0,55.35-1.14,111.93-1.14,167.28,0,8.24,13.58,1.42,5.74,23.12-5.52,22.87-55.12,25.43-71.94,6.63C663.49,742.44,615,604.58,760,573V561.66c-14.48-2.71-20.25-8.88-6.87-22.64,21.39-16.32,38.19-32.27,59.58-48.58q10.11-5.31,11.94,4.7ZM755.49,621.4q-.6,17.55-1.19,35.11c-5.75,8.27-17.29,6.48-17.61-4.15-.12-7.85,9.79-43.53,18.8-31Z"/><path class="cls-6" d="M867.43,560q-1.33,41.19-2.68,82.38c-41.56,42.79-.48,64.63,42.94,64.07,53.44-.68,72-26.09,41.83-69.6q4-83.22,8.06-166.42c2.65-8.23-5.24-8.65-17.91-5.54-33.89,10.13-61.55,31.79-87.46,56.68-12.64,15.8,1.5,27.08,15.22,38.43Z"/><path class="cls-6" d="M884.48,399c25.52-17.46,55.35-20.17,66.61-6.05s-.3,39.73-25.82,57.19-55.34,20.18-66.6,6.05S859,416.41,884.48,399Z"/><path class="cls-8" d="M79,822.55a24.15,24.15,0,0,0,7.26-4,19.15,19.15,0,0,0,5.08-6.29,18.86,18.86,0,0,0,1.91-8.41,20.34,20.34,0,0,0-1.61-8.2,16.54,16.54,0,0,0-4.73-6.25,23.46,23.46,0,0,0-9.31-4.49,54.86,54.86,0,0,0-13.36-1.38c-2.41,0-4.77.06-7.07.21s-4.51.32-6.58.54-4,.5-5.69.79v72.7h12v-31.2h7.28a16,16,0,0,1,7,1.34,10.83,10.83,0,0,1,4.61,4.36,27,27,0,0,1,2.84,7.88c.66,3,1.3,5.73,1.92,8.12s1.18,4.38,1.7,6a25,25,0,0,0,1.37,3.5H96.05a24.2,24.2,0,0,1-1.69-4.3q-.92-2.87-2-6.88c-.71-2.67-1.45-5.62-2.25-8.85a27.56,27.56,0,0,0-4-9.67A14.17,14.17,0,0,0,79,822.74v-.19Zm-22.14-4.33V792.89a21.79,21.79,0,0,1,3.24-.48c1.42-.13,3.15-.2,5.18-.2a26.39,26.39,0,0,1,6.14.66,15,15,0,0,1,5,2.17,10.36,10.36,0,0,1,3.45,4,13.5,13.5,0,0,1,1.27,6,12.45,12.45,0,0,1-2,6.94,13,13,0,0,1-5.58,4.59A21.31,21.31,0,0,1,65,818.22Zm89.2,29.56a35.69,35.69,0,0,1-6.25,1.8,44.3,44.3,0,0,1-8.2.7,21.92,21.92,0,0,1-6.48-.9,15.46,15.46,0,0,1-5.47-2.85,13.48,13.48,0,0,1-3.83-5.11,19.55,19.55,0,0,1-1.58-7.6h36.39c.1-.68.19-1.4.24-2.19s.07-1.62.07-2.53a36.22,36.22,0,0,0-.8-7.69,27.62,27.62,0,0,0-2.49-6.95,20.92,20.92,0,0,0-4.37-5.67,19.2,19.2,0,0,0-6.36-3.82,24.9,24.9,0,0,0-8.54-1.39,26.24,26.24,0,0,0-10.87,2.21,23.39,23.39,0,0,0-8.11,6.07,27.29,27.29,0,0,0-5.06,9A35.05,35.05,0,0,0,102.6,832a31.72,31.72,0,0,0,1.84,11,22.9,22.9,0,0,0,13.86,13.92,32.88,32.88,0,0,0,11.54,1.92,56.91,56.91,0,0,0,10.51-.94,38.27,38.27,0,0,0,7.69-2.23l-2-7.9Zm-31.71-22a21.55,21.55,0,0,1,1.09-4.83,16.52,16.52,0,0,1,2.43-4.6,12,12,0,0,1,4-3.45,11.75,11.75,0,0,1,5.7-1.37,12,12,0,0,1,5.78,1.33,10.43,10.43,0,0,1,3.71,3.41,14.62,14.62,0,0,1,1.94,4.6,19.68,19.68,0,0,1,.52,4.91Zm79.43-19.16a25.54,25.54,0,0,0-5.87-2.15,33.12,33.12,0,0,0-7.75-.93,26.23,26.23,0,0,0-8.19,1.23,19.48,19.48,0,0,0-6.26,3.39,15.32,15.32,0,0,0-4,5,14.43,14.43,0,0,0-1.4,6.23,12.13,12.13,0,0,0,3.51,8.5q3.54,3.88,11.15,6.71a34.15,34.15,0,0,1,5.45,2.62,8.74,8.74,0,0,1,2.93,2.82,6.67,6.67,0,0,1,.87,3.52,6.33,6.33,0,0,1-1,3.59,6.92,6.92,0,0,1-3.17,2.44,14,14,0,0,1-5.35.9,22.86,22.86,0,0,1-4.93-.56,30.15,30.15,0,0,1-4.57-1.35,26.56,26.56,0,0,1-3.61-1.65l-2.7,8.28a25.1,25.1,0,0,0,4.42,1.86,35.17,35.17,0,0,0,5.3,1.25,38.88,38.88,0,0,0,5.87.45,30.1,30.1,0,0,0,11.34-2,16.28,16.28,0,0,0,7.41-5.55,14.57,14.57,0,0,0,2.67-8.76,13.92,13.92,0,0,0-1.64-6.81,15.77,15.77,0,0,0-4.86-5.23,34.25,34.25,0,0,0-8-4,44,44,0,0,1-5.58-2.59,9.25,9.25,0,0,1-3.05-2.55,5.18,5.18,0,0,1-.94-3.14,5.75,5.75,0,0,1,1-3.26,6.57,6.57,0,0,1,2.81-2.31,10.94,10.94,0,0,1,4.55-.89,21.29,21.29,0,0,1,4.41.47,23,23,0,0,1,3.7,1.14,21.08,21.08,0,0,1,2.81,1.38l2.7-8.09ZM210,804.73h-8.11v8.38H210v27.45a30.82,30.82,0,0,0,1,8.65,12.87,12.87,0,0,0,3.23,5.6,12.36,12.36,0,0,0,4.81,3,19.26,19.26,0,0,0,6.52,1,39.6,39.6,0,0,0,5.42-.33,19.2,19.2,0,0,0,3.93-.92l-.41-8.57a22.3,22.3,0,0,1-2.31.48,19.49,19.49,0,0,1-3,.19c-2.53,0-4.39-.8-5.55-2.4s-1.75-4-1.73-7.32V813.11h13.62v-8.38H222V791.64l-12,3.46v9.63Zm76.11,20.42a31.59,31.59,0,0,0-1-8.12,18.49,18.49,0,0,0-3.45-6.89,16.47,16.47,0,0,0-6.62-4.78,27.49,27.49,0,0,0-10.46-1.78,43.71,43.71,0,0,0-7.32.61,39.12,39.12,0,0,0-6.3,1.6,26.64,26.64,0,0,0-4.89,2.22l2.5,7.41a23.35,23.35,0,0,1,4.08-1.94,31,31,0,0,1,4.78-1.27,29.5,29.5,0,0,1,5.07-.45,16.94,16.94,0,0,1,5.63.85,8.64,8.64,0,0,1,3.41,2.19,8,8,0,0,1,1.75,2.93,12.88,12.88,0,0,1,.66,3.13c.07,1,.1,1.95.09,2.75a66.06,66.06,0,0,0-13.29,1.23,32.63,32.63,0,0,0-10.09,3.7,17.76,17.76,0,0,0-6.41,6.16,16.77,16.77,0,0,0-2.24,8.65,15.61,15.61,0,0,0,1.13,5.87,14.71,14.71,0,0,0,3.28,4.95,15.54,15.54,0,0,0,5.28,3.42,19.92,19.92,0,0,0,7.16,1.26,23.11,23.11,0,0,0,6.62-.94,19.68,19.68,0,0,0,5.4-2.57,17.31,17.31,0,0,0,4-3.71h.31l.83,6.16h10.92a40.84,40.84,0,0,1-.7-5.9c-.1-2.19-.15-4.42-.13-6.71v-20Zm-11.75,14.73a10,10,0,0,1-1.65,5.54,11.13,11.13,0,0,1-4.3,3.82,13.13,13.13,0,0,1-6,1.43,9.6,9.6,0,0,1-4.18-.9,7,7,0,0,1-3-2.76,9.15,9.15,0,0,1-1.2-4.81,9.35,9.35,0,0,1,1.21-4.79,9.46,9.46,0,0,1,3.25-3.19,17.27,17.27,0,0,1,4.65-1.93,35.59,35.59,0,0,1,5.51-.93,55.71,55.71,0,0,1,5.76-.24v8.76Zm73.5-35.15H335.81v32.84a12.38,12.38,0,0,1-1.1,5.25,11.18,11.18,0,0,1-2.82,3.77,12.2,12.2,0,0,1-3.85,2.26,12.38,12.38,0,0,1-4.19.76,10,10,0,0,1-6.29-1.91,10.41,10.41,0,0,1-3.4-5.3,27,27,0,0,1-1-8V804.73H301.08v31.52a33.66,33.66,0,0,0,1.51,10.68,18,18,0,0,0,4,7,15.49,15.49,0,0,0,5.91,3.81,20.59,20.59,0,0,0,7.06,1.15,22.58,22.58,0,0,0,6.27-.85,20.83,20.83,0,0,0,4.94-2.16,20.5,20.5,0,0,0,3.63-2.83,17.48,17.48,0,0,0,2.41-2.92h.32l.62,7.7h10.6c-.1-2.11-.22-4.43-.32-6.95s-.18-5.26-.2-8.23V804.73Zm44.29-.86c-.5-.1-1-.18-1.47-.23a15.41,15.41,0,0,0-7.59,1.25,16.59,16.59,0,0,0-5.2,3.74,18.14,18.14,0,0,0-3.62,5.83h-.41l-.42-9.73h-10.5c.16,2.44.26,5,.33,7.63s.08,5.49.08,8.55v36.88h12.07V829.67a19.19,19.19,0,0,1,1.62-8.1,12.43,12.43,0,0,1,4.55-5.36,12.62,12.62,0,0,1,7-1.94c.68,0,1.3,0,1.89.06a16.2,16.2,0,0,1,1.64.23V803.87Zm49.49,21.28a31.16,31.16,0,0,0-1-8.12,18.64,18.64,0,0,0-3.45-6.89,16.47,16.47,0,0,0-6.62-4.78,27.54,27.54,0,0,0-10.47-1.78,43.68,43.68,0,0,0-7.31.61,39.52,39.52,0,0,0-6.31,1.6,26.52,26.52,0,0,0-4.88,2.22l2.49,7.41a23.46,23.46,0,0,1,4.09-1.94,30.7,30.7,0,0,1,4.78-1.27,29.47,29.47,0,0,1,5.06-.45,16.85,16.85,0,0,1,5.63.85,8.68,8.68,0,0,1,3.42,2.19,8.14,8.14,0,0,1,1.75,2.93,13.37,13.37,0,0,1,.66,3.13c.07,1,.1,1.95.08,2.75a66.21,66.21,0,0,0-13.29,1.23,32.66,32.66,0,0,0-10.08,3.7,17.76,17.76,0,0,0-6.41,6.16,16.67,16.67,0,0,0-2.24,8.65,15.42,15.42,0,0,0,1.13,5.87,14.68,14.68,0,0,0,3.27,4.95,15.69,15.69,0,0,0,5.29,3.42,19.86,19.86,0,0,0,7.15,1.26,23.18,23.18,0,0,0,6.63-.94,19.82,19.82,0,0,0,5.4-2.57,17.31,17.31,0,0,0,4-3.71h.31l.83,6.16h10.92a40.84,40.84,0,0,1-.7-5.9c-.1-2.19-.15-4.42-.14-6.71v-20ZM429.9,839.88a10,10,0,0,1-1.65,5.54,11.21,11.21,0,0,1-4.3,3.82,13.13,13.13,0,0,1-6,1.43,9.6,9.6,0,0,1-4.18-.9,7,7,0,0,1-3.05-2.76,9.25,9.25,0,0,1-1.19-4.81,9.35,9.35,0,0,1,1.21-4.79,9.51,9.51,0,0,1,3.24-3.19,17.48,17.48,0,0,1,4.66-1.93,35.38,35.38,0,0,1,5.51-.93,55.71,55.71,0,0,1,5.76-.24v8.76Zm74.23-14.54a28.54,28.54,0,0,0-1.7-10.3,18.2,18.2,0,0,0-4.4-6.73,17.09,17.09,0,0,0-6.1-3.64,20.52,20.52,0,0,0-6.72-1.09,23,23,0,0,0-6,.77,20.83,20.83,0,0,0-4.92,2,19.19,19.19,0,0,0-3.83,2.91,16.44,16.44,0,0,0-2.63,3.32h-.32l-.62-7.9h-10.5c.07,1.5.14,3,.21,4.58s.1,3.18.15,4.88.05,3.51.05,5.47v38.13h12.06v-32a14.12,14.12,0,0,1,1.1-5.6,11.86,11.86,0,0,1,2.82-4.08,12.48,12.48,0,0,1,3.93-2.48,12.24,12.24,0,0,1,4.42-.84,11.5,11.5,0,0,1,5.18,1.11,9,9,0,0,1,3.37,3,13.37,13.37,0,0,1,1.82,4.41,23,23,0,0,1,.55,5.35v31.1h12.06V825.34Zm17.57-20.61h-8.11v8.38h8.11v27.45a30.82,30.82,0,0,0,1,8.65,12.86,12.86,0,0,0,3.22,5.6,12.47,12.47,0,0,0,4.82,3,19.25,19.25,0,0,0,6.51,1,39.86,39.86,0,0,0,5.43-.33,19.36,19.36,0,0,0,3.93-.92l-.41-8.57a22.87,22.87,0,0,1-2.31.48,19.49,19.49,0,0,1-3,.19q-3.81,0-5.55-2.4c-1.18-1.61-1.75-4-1.73-7.32V813.11h13.62v-8.38H533.66V791.64l-12,3.46v9.63ZM630.24,844.5a34.59,34.59,0,0,0,5.25-7.62,53.45,53.45,0,0,0,3.68-9.18,85,85,0,0,0,2.4-10.45H630.76c-.38,2.62-.87,5.15-1.47,7.61a52.09,52.09,0,0,1-2.22,6.93,31.33,31.33,0,0,1-3.07,5.88c-1.64-1.75-3.43-3.71-5.33-5.83s-3.85-4.32-5.83-6.55-3.86-4.36-5.68-6.4v-.38a47.1,47.1,0,0,0,9.43-6,20.08,20.08,0,0,0,5.19-6.46,16.13,16.13,0,0,0,1.6-7.17,16.4,16.4,0,0,0-1.38-6.68,14.63,14.63,0,0,0-3.82-5,17.32,17.32,0,0,0-5.68-3.13,22,22,0,0,0-7-1.09,23.77,23.77,0,0,0-8.79,1.57,18.56,18.56,0,0,0-6.34,4.14,17.87,17.87,0,0,0-5.15,12.59,20.48,20.48,0,0,0,1.74,8,29.55,29.55,0,0,0,4.61,7.44l-.11.29a36.08,36.08,0,0,0-7.73,5.54,23.35,23.35,0,0,0-5.09,7.06,20.62,20.62,0,0,0-1.84,8.69,19.7,19.7,0,0,0,1.56,7.76A19.32,19.32,0,0,0,583,852.6a22,22,0,0,0,7.59,4.55,30.32,30.32,0,0,0,10.45,1.7,34.26,34.26,0,0,0,11.69-1.91,29.8,29.8,0,0,0,9.83-5.79c1.33,1.41,2.49,2.65,3.5,3.67s2,2,2.94,3h14L630.24,844.5Zm-27.24,6a16.54,16.54,0,0,1-6-1.1,13.51,13.51,0,0,1-7.61-7.44,14.5,14.5,0,0,1-1-5.43,13.55,13.55,0,0,1,.8-4.61,14.24,14.24,0,0,1,2-3.77,19,19,0,0,1,2.74-3,27.64,27.64,0,0,1,3-2.23l7.34,8.11q3.64,4,6.87,7.48t5.75,6.18a18.25,18.25,0,0,1-8.91,5.2,21,21,0,0,1-4.92.58Zm1.77-60a8.49,8.49,0,0,1,3.73.79,7,7,0,0,1,2.51,2.05,8.52,8.52,0,0,1,1.42,2.84,11.16,11.16,0,0,1,.45,3.18,9.88,9.88,0,0,1-1.34,5.07,15.71,15.71,0,0,1-3.84,4.35,42.31,42.31,0,0,1-6.05,4.06,28.28,28.28,0,0,1-4-5.9,15.3,15.3,0,0,1-1.54-6.62,12.56,12.56,0,0,1,.52-3.61,9.87,9.87,0,0,1,1.58-3.14,7.78,7.78,0,0,1,2.68-2.23,8.74,8.74,0,0,1,3.85-.84ZM709.15,818a23,23,0,0,0,7.09-3.88,16.77,16.77,0,0,0,4.47-5.55,14.86,14.86,0,0,0,1.54-6.65,18.05,18.05,0,0,0-.62-4.76,14.71,14.71,0,0,0-2.39-4.92,17,17,0,0,0-4.91-4.38,27.67,27.67,0,0,0-8.21-3.13,55.23,55.23,0,0,0-12.25-1.2c-2.37,0-4.69.06-7,.21s-4.41.32-6.41.54-3.72.5-5.23.79V857.6q2.58.31,6.53.58c2.65.18,5.74.27,9.27.29a67.92,67.92,0,0,0,16.5-1.7,25,25,0,0,0,10.64-5.23,23.36,23.36,0,0,0,2.3-2.28,18.87,18.87,0,0,0,2.22-3.15A17.89,17.89,0,0,0,724.4,842a20,20,0,0,0,.66-5.24,18.06,18.06,0,0,0-1.32-7,17.08,17.08,0,0,0-3.51-5.39,20.9,20.9,0,0,0-5.08-3.82,24.36,24.36,0,0,0-6-2.23V818Zm-21.93-3.18V792.6a23.45,23.45,0,0,1,3-.4c1.26-.11,2.88-.18,4.83-.18a29.55,29.55,0,0,1,5.53.48,15.74,15.74,0,0,1,4.87,1.74,9.2,9.2,0,0,1,3.46,3.38,10.61,10.61,0,0,1,1.32,5.48,10.3,10.3,0,0,1-1.92,6.08,12.35,12.35,0,0,1-5.37,4.14,21.1,21.1,0,0,1-8.3,1.52Zm0,8.29h7a30,30,0,0,1,6.76.7,19.23,19.23,0,0,1,5.86,2.3,11.67,11.67,0,0,1,4.12,4.11,12,12,0,0,1,1.56,6.17,12.79,12.79,0,0,1-1.46,6.22,11.33,11.33,0,0,1-3.91,4.17,17.77,17.77,0,0,1-5.72,2.36,30.51,30.51,0,0,1-6.89.74c-1.57,0-3,0-4.15-.08a29.26,29.26,0,0,1-3.13-.31V823.13Zm90.14,2a31.59,31.59,0,0,0-1-8.12,18.49,18.49,0,0,0-3.45-6.89,16.47,16.47,0,0,0-6.62-4.78,27.49,27.49,0,0,0-10.46-1.78,43.71,43.71,0,0,0-7.32.61,39.12,39.12,0,0,0-6.3,1.6,26.64,26.64,0,0,0-4.89,2.22l2.49,7.41a23.81,23.81,0,0,1,4.09-1.94,30.53,30.53,0,0,1,4.79-1.27,29.27,29.27,0,0,1,5-.45,17,17,0,0,1,5.64.85,8.64,8.64,0,0,1,3.41,2.19,8.14,8.14,0,0,1,1.75,2.93,12.88,12.88,0,0,1,.66,3.13c.07,1,.1,1.95.09,2.75A66.14,66.14,0,0,0,752,824.84a32.63,32.63,0,0,0-10.09,3.7,17.76,17.76,0,0,0-6.41,6.16,16.67,16.67,0,0,0-2.24,8.65,15.42,15.42,0,0,0,1.13,5.87,14.68,14.68,0,0,0,3.27,4.95,15.69,15.69,0,0,0,5.29,3.42,19.92,19.92,0,0,0,7.16,1.26,23.11,23.11,0,0,0,6.62-.94,19.68,19.68,0,0,0,5.4-2.57,17.31,17.31,0,0,0,4-3.71h.31l.83,6.16h10.92a40.84,40.84,0,0,1-.7-5.9c-.1-2.19-.15-4.42-.13-6.71v-20Zm-11.75,14.73a10,10,0,0,1-1.65,5.54,11.18,11.18,0,0,1-4.29,3.82,13.2,13.2,0,0,1-6,1.43,9.53,9.53,0,0,1-4.17-.9,6.94,6.94,0,0,1-3.05-2.76,9.15,9.15,0,0,1-1.2-4.81,9.35,9.35,0,0,1,1.21-4.79,9.6,9.6,0,0,1,3.24-3.19,17.48,17.48,0,0,1,4.66-1.93,35.31,35.31,0,0,1,5.52-.93,55.4,55.4,0,0,1,5.75-.24v8.76Zm23.6-35.15v9h27.24v.2q-1.85,2.07-3.64,4.16l-3.64,4.31L787,851.15v6.64h44.29v-9H801.79v-.19c1.25-1.35,2.48-2.74,3.67-4.17s2.41-2.91,3.61-4.4l21.73-28.22v-7Zm92.11,20.42a31.16,31.16,0,0,0-1-8.12,18.64,18.64,0,0,0-3.45-6.89,16.47,16.47,0,0,0-6.62-4.78,27.51,27.51,0,0,0-10.47-1.78,43.68,43.68,0,0,0-7.31.61,39.52,39.52,0,0,0-6.31,1.6A26.52,26.52,0,0,0,841.3,808l2.49,7.41a23.46,23.46,0,0,1,4.09-1.94,30.7,30.7,0,0,1,4.78-1.27,29.47,29.47,0,0,1,5.06-.45,17,17,0,0,1,5.64.85,8.71,8.71,0,0,1,3.41,2.19,8.14,8.14,0,0,1,1.75,2.93,13.37,13.37,0,0,1,.66,3.13c.07,1,.1,1.95.08,2.75A66,66,0,0,0,856,824.84a32.63,32.63,0,0,0-10.09,3.7,17.76,17.76,0,0,0-6.41,6.16,16.67,16.67,0,0,0-2.24,8.65,15.42,15.42,0,0,0,1.13,5.87,14.68,14.68,0,0,0,3.27,4.95,15.69,15.69,0,0,0,5.29,3.42,19.88,19.88,0,0,0,7.16,1.26,23,23,0,0,0,6.61-.94,19.75,19.75,0,0,0,5.41-2.57,17.31,17.31,0,0,0,4-3.71h.31l.83,6.16h10.92a40.84,40.84,0,0,1-.7-5.9c-.1-2.19-.15-4.42-.14-6.71v-20Zm-11.74,14.73a10,10,0,0,1-1.65,5.54,11.21,11.21,0,0,1-4.3,3.82,13.13,13.13,0,0,1-6,1.43,9.6,9.6,0,0,1-4.18-.9,7,7,0,0,1-3-2.76,9,9,0,0,1-1.2-4.81,9.15,9.15,0,0,1,1.21-4.79,9.51,9.51,0,0,1,3.24-3.19,17.48,17.48,0,0,1,4.66-1.93,35.38,35.38,0,0,1,5.51-.93,55.71,55.71,0,0,1,5.76-.24v8.76Zm67-14.73a31.16,31.16,0,0,0-1-8.12,18.49,18.49,0,0,0-3.45-6.89,16.47,16.47,0,0,0-6.62-4.78,27.49,27.49,0,0,0-10.46-1.78,43.71,43.71,0,0,0-7.32.61,39.12,39.12,0,0,0-6.3,1.6,26.64,26.64,0,0,0-4.89,2.22l2.49,7.41a24.17,24.17,0,0,1,4.09-1.94,30.7,30.7,0,0,1,4.78-1.27,29.47,29.47,0,0,1,5.06-.45,17,17,0,0,1,5.64.85,8.64,8.64,0,0,1,3.41,2.19,8.14,8.14,0,0,1,1.75,2.93,13.37,13.37,0,0,1,.66,3.13c.07,1,.1,1.95.09,2.75a66.06,66.06,0,0,0-13.29,1.23,32.63,32.63,0,0,0-10.09,3.7,17.76,17.76,0,0,0-6.41,6.16,16.67,16.67,0,0,0-2.24,8.65,15.42,15.42,0,0,0,1.13,5.87,14.68,14.68,0,0,0,3.27,4.95,15.69,15.69,0,0,0,5.29,3.42,19.92,19.92,0,0,0,7.16,1.26,23.17,23.17,0,0,0,6.62-.94,19.82,19.82,0,0,0,5.4-2.57,17.31,17.31,0,0,0,4-3.71h.31l.83,6.16h10.92a40.84,40.84,0,0,1-.7-5.9c-.1-2.19-.15-4.42-.14-6.71v-20Zm-11.74,14.73a10,10,0,0,1-1.65,5.54,11.13,11.13,0,0,1-4.3,3.82,13.13,13.13,0,0,1-6,1.43,9.53,9.53,0,0,1-4.17-.9,6.94,6.94,0,0,1-3-2.76,9.15,9.15,0,0,1-1.2-4.81,9.35,9.35,0,0,1,1.21-4.79,9.51,9.51,0,0,1,3.24-3.19,17.48,17.48,0,0,1,4.66-1.93,35.38,35.38,0,0,1,5.51-.93,55.71,55.71,0,0,1,5.76-.24v8.76Zm55.72-36c-.5-.1-1-.18-1.47-.23a15.41,15.41,0,0,0-7.59,1.25,16.59,16.59,0,0,0-5.2,3.74,18.14,18.14,0,0,0-3.62,5.83h-.41l-.42-9.73H951.4q.23,3.66.33,7.63c0,2.63.08,5.49.08,8.55v36.88h12.07V829.67a19,19,0,0,1,1.63-8.1,12.34,12.34,0,0,1,4.54-5.36,12.62,12.62,0,0,1,7-1.94c.68,0,1.3,0,1.89.06a16.2,16.2,0,0,1,1.64.23V803.87Z"/></svg>